HIERARCHY
ROOT Hips
{
	OFFSET 0.000000 0.000000 0.000000
	CHANNELS 6 Xposition Yposition Zposition Zrotation Yrotation Xrotation 
	JOINT LHipJoint
	{
		OFFSET 0.000000 0.000000 0.000000
		CHANNELS 3 Zrotation Yrotation Xrotation
		JOINT LeftUpLeg
		{
			OFFSET 1.363060 -1.794630 0.839290
			CHANNELS 3 Zrotation Yrotation Xrotation
			JOINT LeftLeg
			{
				OFFSET 2.448110 -6.726130 0.000000
				CHANNELS 3 Zrotation Yrotation Xrotation
				JOINT LeftFoot
				{
					OFFSET 2.562200 -7.039590 0.000000
					CHANNELS 3 Zrotation Yrotation Xrotation
					JOINT LeftToeBase
					{
						OFFSET 0.157640 -0.433110 2.322550
						CHANNELS 3 Zrotation Yrotation Xrotation
						End Site
						{
							OFFSET 0.000000 0.000000 0.000000
						}
					}
				}
			}
		}
	}
	JOINT RHipJoint
	{
		OFFSET 0.000000 0.000000 0.000000
		CHANNELS 3 Zrotation Yrotation Xrotation
		JOINT RightUpLeg
		{
			OFFSET -1.305520 -1.794630 0.839290
			CHANNELS 3 Zrotation Yrotation Xrotation
			JOINT RightLeg
			{
				OFFSET -2.542530 -6.985550 0.000000
				CHANNELS 3 Zrotation Yrotation Xrotation
				JOINT RightFoot
				{
					OFFSET -2.568260 -7.056230 0.000000
					CHANNELS 3 Zrotation Yrotation Xrotation
					JOINT RightToeBase
					{
						OFFSET -0.164730 -0.452590 2.363150
						CHANNELS 3 Zrotation Yrotation Xrotation
						End Site
						{
							OFFSET 0.000000 0.000000 0.000000
						}
					}
				}
			}
		}
	}
	JOINT LowerBack
	{
		OFFSET 0.000000 0.000000 0.000000
		CHANNELS 3 Zrotation Yrotation Xrotation
		JOINT Spine
		{
			OFFSET 0.028270 2.035590 -0.193380
			CHANNELS 3 Zrotation Yrotation Xrotation
			JOINT Spine1
			{
				OFFSET 0.056720 2.048850 -0.042750
				CHANNELS 3 Zrotation Yrotation Xrotation
				JOINT Neck
				{
					OFFSET 0.000000 0.000000 0.000000
					CHANNELS 3 Zrotation Yrotation Xrotation
					JOINT Neck1
					{
						OFFSET -0.054170 1.746240 0.172020
						CHANNELS 3 Zrotation Yrotation Xrotation
						JOINT Head
						{
							OFFSET 0.104070 1.761360 -0.123970
							CHANNELS 3 Zrotation Yrotation Xrotation
							End Site
							{
								OFFSET 0.000000 0.000000 0.000000
							}
						}
					}
				}
				JOINT LeftShoulder
				{
					OFFSET 0.000000 0.000000 0.000000
					CHANNELS 3 Zrotation Yrotation Xrotation
					JOINT LeftArm
					{
						OFFSET 3.362410 1.200890 -0.311210
						CHANNELS 3 Zrotation Yrotation Xrotation
						JOINT LeftForeArm
						{
							OFFSET 4.983000 -0.000000 -0.000000
							CHANNELS 3 Zrotation Yrotation Xrotation
							JOINT LeftHand
							{
								OFFSET 3.483560 -0.000000 -0.000000
								CHANNELS 3 Zrotation Yrotation Xrotation
								JOINT LeftFingerBase
								{
									OFFSET 0.000000 0.000000 0.000000
									CHANNELS 3 Zrotation Yrotation Xrotation
									JOINT LeftHandIndex1
									{
										OFFSET 0.715260 -0.000000 -0.000000
										CHANNELS 3 Zrotation Yrotation Xrotation
										End Site
										{
											OFFSET 0.000000 0.000000 0.000000
										}
									}
								}
								JOINT LThumb
								{
									OFFSET 0.000000 0.000000 0.000000
									CHANNELS 3 Zrotation Yrotation Xrotation
									End Site
									{
										OFFSET 0.000000 0.000000 0.000000
									}
								}
							}
						}
					}
				}
				JOINT RightShoulder
				{
					OFFSET 0.000000 0.000000 0.000000
					CHANNELS 3 Zrotation Yrotation Xrotation
					JOINT RightArm
					{
						OFFSET -3.136600 1.374050 -0.404650
						CHANNELS 3 Zrotation Yrotation Xrotation
						JOINT RightForeArm
						{
							OFFSET -5.241900 -0.000000 -0.000000
							CHANNELS 3 Zrotation Yrotation Xrotation
							JOINT RightHand
							{
								OFFSET -3.444170 -0.000000 -0.000000
								CHANNELS 3 Zrotation Yrotation Xrotation
								JOINT RightFingerBase
								{
									OFFSET 0.000000 0.000000 0.000000
									CHANNELS 3 Zrotation Yrotation Xrotation
									JOINT RightHandIndex1
									{
										OFFSET -0.622530 -0.000000 -0.000000
										CHANNELS 3 Zrotation Yrotation Xrotation
										End Site
										{
											OFFSET 0.000000 0.000000 0.000000
										}
									}
								}
								JOINT RThumb
								{
									OFFSET 0.000000 0.000000 0.000000
									CHANNELS 3 Zrotation Yrotation Xrotation
									End Site
									{
										OFFSET 0.000000 0.000000 0.000000
									}
								}
							}
						}
					}
				}
			}
		}
	}
}
MOTION
Frames: 12
Frame Time: 0.008333
3.557162 17.236463 0.908882 -8.378129 -86.578914 19.696398 -11.539133 1.714247 1.634332 -3.515090 13.392715 -17.891286 -2.446414 -0.878909 0.161636 0.189714 1.247623 3.276403 0.431500 -0.000000 -38.285900 9.144970 -1.522383 1.616119 4.851052 -6.394223 -10.231538 2.186068 1.702409 -1.391922 -1.727948 -10.144331 -0.764607 -2.083801 0.000000 -38.398300 0.230875 -2.720947 -4.256448 -0.301107 -2.809933 -3.444867 -6.536709 -2.572452 -0.224767 8.562118 -9.652065 -2.045908 -3.978607 -0.358044 1.540812 0.000000 0.000000 0.000000 12.145670 6.228701 -2.298902 -83.832441 -15.469305 16.911606 -178.140833 -52.633582 179.981967 1.285914 -7.826068 -0.091979 0.035792 1.173099 -0.000000 0.000000 0.000000 0.000000 0.000000 0.000000 0.000000 1.268815 -7.568866 -3.557181 85.676272 22.625688 31.903305 -179.277343 54.853961 179.854902 -12.323095 8.608078 -1.059521 0.329503 -0.959803 -0.000000 0.000000 0.000000 0.000000 0.000000 0.000000 0.000000 
3.557165 17.238604 0.903834 -6.838074 -85.390089 18.320532 -11.474598 1.734052 1.833417 -3.470492 12.666675 -18.205817 -2.446704 -0.894836 -0.030626 0.134803 0.815971 3.597049 0.371900 0.000000 -38.483600 9.187791 -1.540874 1.594026 5.034864 -6.791869 -10.007221 2.160617 1.780310 -2.004955 -1.849706 -10.899812 -0.622441 -2.254600 0.000000 -38.113600 0.130450 -2.680414 -4.426017 -0.316234 -2.760379 -3.471498 -6.494532 -2.524368 -0.238950 8.677831 -9.485839 -1.817016 -3.940186 -0.357275 1.603226 0.000000 0.000000 0.000000 12.164037 6.278342 -2.398454 -84.466551 -16.957124 18.275141 -178.043850 -53.072887 179.982886 1.281326 -7.898143 -0.093084 0.028243 1.189336 -0.000000 0.000000 0.000000 0.000000 0.000000 0.000000 0.000000 1.284817 -7.571524 -3.591762 84.850165 23.381699 30.941688 -179.215618 54.782202 179.848913 -12.783114 8.594859 -1.097967 0.340665 -0.960068 -0.000000 0.000000 0.000000 0.000000 0.000000 0.000000 0.000000 
3.558025 17.241321 0.899327 -5.738378 -84.220806 17.375476 -11.412704 1.752253 2.037205 -3.433621 11.904856 -18.473616 -2.442457 -0.918720 -0.268381 0.087708 0.476140 3.937192 0.326200 -0.000001 -38.643300 9.231702 -1.572064 1.584517 5.193048 -7.175092 -9.773819 2.134364 1.856384 -2.662109 -1.964692 -11.627855 -0.438409 -2.434800 0.000000 -37.834600 -0.013423 -2.630703 -4.613576 -0.332684 -2.696746 -3.516797 -6.410602 -2.467679 -0.322450 8.780847 -9.209408 -1.472854 -3.893448 -0.357159 1.697685 0.000000 0.000000 0.000000 12.157371 6.164194 -2.484483 -85.172088 -18.316043 19.708415 -177.995428 -53.551097 179.983151 1.287904 -7.956656 -0.094738 0.023608 1.203231 -0.000000 0.000000 0.000000 0.000000 0.000000 0.000000 0.000000 1.291463 -7.455160 -3.622815 83.782076 24.411090 29.822181 -179.164453 54.785355 179.842194 -13.295118 8.576808 -1.140337 0.353183 -0.960434 -0.000000 0.000000 0.000000 0.000000 0.000000 0.000000 0.000000 
3.560476 17.244469 0.895663 -4.895793 -83.090782 16.668323 -11.351822 1.772656 2.244663 -3.401984 11.116206 -18.691730 -2.434005 -0.948047 -0.538600 0.049168 0.230576 4.284299 0.295300 0.000000 -38.761200 9.278637 -1.611600 1.582839 5.324667 -7.552338 -9.534912 2.108263 1.929277 -3.338303 -2.069393 -12.310918 -0.218562 -2.620200 0.000000 -37.569499 -0.188588 -2.573918 -4.814460 -0.344816 -2.621251 -3.584917 -6.258159 -2.406328 -0.493530 8.826963 -8.790099 -0.991143 -3.836574 -0.357854 1.830521 0.000000 0.000000 0.000000 12.101423 5.849626 -2.547849 -85.917527 -19.488743 21.137647 -178.008176 -54.037655 179.982529 1.309778 -7.993063 -0.097054 0.022735 1.214024 -0.000000 0.000000 0.000000 0.000000 0.000000 0.000000 0.000000 1.269516 -7.178484 -3.652762 82.439340 25.794187 28.518748 -179.128319 54.983647 179.835600 -13.789439 8.480280 -1.170568 0.363119 -0.957060 -0.000000 0.000000 0.000000 0.000000 0.000000 0.000000 0.000000 
3.565210 17.247873 0.893110 -4.219726 -82.019817 16.101123 -11.291509 1.796437 2.451801 -3.375127 10.315068 -18.858678 -2.421928 -0.980542 -0.825953 0.019466 0.077837 4.626271 0.280100 0.000000 -38.834900 9.329248 -1.656069 1.584096 5.427844 -7.929278 -9.296895 2.083288 1.996615 -4.005744 -2.160713 -12.930991 0.028871 -2.805400 0.000000 -37.324300 -0.378754 -2.509873 -5.021065 -0.346756 -2.534072 -3.677853 -6.013144 -2.340904 -0.762636 8.767697 -8.204126 -0.365843 -3.766274 -0.359295 2.003519 0.000000 0.000000 0.000000 11.960344 5.323745 -2.583418 -86.664981 -20.452610 22.500423 -178.087593 -54.509731 179.980898 1.348872 -8.001137 -0.100245 0.026063 1.221142 -0.000000 0.000000 0.000000 0.000000 0.000000 0.000000 0.000000 1.200910 -6.705218 -3.682281 80.788043 27.594665 26.982806 -179.104107 55.529132 179.830058 -14.193649 8.220865 -1.169993 0.365636 -0.945518 -0.000000 0.000000 0.000000 0.000000 0.000000 0.000000 0.000000 
3.572887 17.251484 0.891837 -3.653726 -81.029976 15.613324 -11.232093 1.822303 2.651039 -3.354836 9.522068 -18.973287 -2.407088 -1.014011 -1.114122 -0.001391 0.013554 4.951997 0.280800 0.000000 -38.862900 9.383406 -1.702185 1.582946 5.499483 -8.307084 -9.067883 2.060209 2.055290 -4.635632 -2.236054 -13.469706 0.293115 -2.983000 -0.000001 -37.103000 -0.563018 -2.433750 -5.221473 -0.333251 -2.431279 -3.794371 -5.660177 -2.266024 -1.129102 8.557539 -7.443201 0.385854 -3.678508 -0.361190 2.211955 0.000000 0.000000 0.000000 11.690714 4.603627 -2.592712 -87.375633 -21.219834 23.753969 -178.230506 -54.952466 179.978278 1.404756 -7.978373 -0.104122 0.033455 1.224189 -0.000000 0.000000 0.000000 0.000000 0.000000 0.000000 0.000000 1.072734 -6.011312 -3.706431 78.788930 29.847440 25.150613 -179.079727 56.600380 179.826306 -14.457515 7.731427 -1.124026 0.356257 -0.922356 -0.000000 0.000000 0.000000 0.000000 0.000000 0.000000 0.000000 
3.584185 17.255303 0.891793 -3.161278 -80.146962 15.165064 -11.174762 1.846155 2.830586 -3.345731 8.768416 -19.037963 -2.390915 -1.046083 -1.382919 -0.013909 0.027556 5.250856 0.296400 0.000001 -38.842500 9.440067 -1.746718 1.574349 5.536139 -8.679711 -8.857576 2.039420 2.101625 -5.200853 -2.293446 -13.910506 0.565123 -3.145900 -0.000001 -36.911899 -0.718796 -2.336230 -5.399299 -0.300833 -2.305084 -3.928815 -5.198596 -2.170560 -1.577316 8.166062 -6.522829 1.219388 -3.571975 -0.363197 2.443417 0.000000 0.000000 0.000000 11.255176 3.730252 -2.586500 -88.016662 -21.830844 24.876401 -178.424805 -55.349365 179.974790 1.480008 -7.915385 -0.108792 0.043880 1.222552 -0.000000 0.000000 0.000000 0.000000 0.000000 0.000000 0.000000 0.891869 -5.100080 -3.710457 76.387217 32.564525 22.963040 -179.039194 58.391351 179.824637 -14.580497 6.967709 -1.026850 0.332820 -0.886110 -0.000000 0.000000 0.000000 0.000000 0.000000 0.000000 0.000000 
3.599082 17.259186 0.892826 -2.710067 -79.395750 14.740796 -11.120939 1.862573 2.983113 -3.350422 8.064779 -19.063237 -2.373255 -1.076196 -1.622481 -0.016572 0.130418 5.514350 0.330200 0.000001 -38.782300 9.496766 -1.786484 1.557384 5.537099 -9.027961 -8.691126 2.021261 2.133399 -5.675953 -2.333217 -14.242763 0.825607 -3.285200 0.000000 -36.738600 -0.814704 -2.204589 -5.546069 -0.246964 -2.146210 -4.075254 -4.648237 -2.041318 -2.085632 7.566624 -5.462549 2.070697 -3.440623 -0.364529 2.680284 0.000000 0.000000 0.000000 10.628898 2.779963 -2.580973 -88.565413 -22.345714 25.874902 -178.649698 -55.697752 179.970876 1.559219 -7.839241 -0.113458 0.056494 1.217065 -0.000000 0.000000 0.000000 0.000000 0.000000 0.000000 0.000000 0.609249 -3.987314 -3.684736 73.600466 35.662013 20.359683 -178.959237 61.098405 179.824705 -14.588763 6.019495 -0.894927 0.293747 -0.841505 -0.000000 0.000000 0.000000 0.000000 0.000000 0.000000 0.000000 
3.617999 17.263463 0.894563 -2.276524 -78.803028 14.310348 -11.072299 1.864605 3.091887 -3.379064 7.466231 -19.051288 -2.357593 -1.102762 -1.808210 -0.011986 0.294678 5.735741 0.376900 0.000000 -38.672901 9.548243 -1.811924 1.518728 5.503252 -9.325377 -8.760940 2.000011 2.112036 -5.623861 -2.306840 -14.442576 0.833005 -3.395000 -0.000000 -36.594700 -0.836946 -2.028453 -5.631351 -0.174655 -1.946945 -4.220218 -4.047423 -1.866656 -2.621482 6.782720 -4.311714 2.866115 -3.292202 -0.365041 2.901919 0.000000 0.000000 0.000000 9.822970 1.825740 -2.596695 -89.017624 -22.826333 26.769163 -178.880769 -55.986790 179.966772 1.652451 -7.726544 -0.118610 0.068735 1.206728 -0.000000 0.000000 0.000000 0.000000 0.000000 0.000000 0.000000 0.258035 -2.740998 -3.609127 70.393819 39.088092 17.322752 -178.854400 64.905522 179.825861 -14.573905 4.890756 -0.737807 0.243341 -0.792049 -0.000000 0.000000 0.000000 0.000000 0.000000 0.000000 0.000000 
3.640535 17.267880 0.896451 -1.819713 -78.400608 13.856299 -11.030774 1.846969 3.147547 -3.437952 6.985232 -19.015043 -2.343964 -1.125428 -1.938033 0.001752 0.532764 5.910577 0.439300 -0.000000 -38.527000 9.595772 -1.825952 1.468030 5.425893 -9.558982 -8.915390 1.981046 2.069466 -5.422843 -2.258406 -14.507096 0.793189 -3.465500 0.000000 -36.467900 -0.768236 -1.798591 -5.649347 -0.087064 -1.701924 -4.358582 -3.440722 -1.639736 -3.169304 5.820593 -3.107185 3.548483 -3.121936 -0.363993 3.092992 0.000000 0.000000 0.000000 8.869285 0.954803 -2.646701 -89.380060 -23.315390 27.583586 -179.095949 -56.210324 179.962957 1.740943 -7.612707 -0.123337 0.079810 1.193032 -0.000000 0.000000 0.000000 0.000000 0.000000 0.000000 0.000000 -0.264733 -1.423106 -3.502240 66.940850 42.672922 13.863299 -178.767528 69.976807 179.826978 -14.607025 3.740800 -0.581434 0.185350 -0.746723 -0.000000 0.000000 0.000000 0.000000 0.000000 0.000000 0.000000 
3.666162 17.272775 0.898048 -1.329439 -78.213602 13.380437 -10.998564 1.805649 3.139053 -3.533456 6.664130 -18.972720 -2.334887 -1.143370 -1.996957 0.022925 0.824111 6.036443 0.512700 0.000000 -38.341600 9.640120 -1.833977 1.417069 5.304876 -9.709714 -9.041684 1.967560 2.028615 -5.350988 -2.221836 -14.443157 0.867335 -3.495500 0.000000 -36.357400 -0.618940 -1.509506 -5.594379 0.006742 -1.406777 -4.484928 -2.872162 -1.355859 -3.713907 4.736721 -1.900791 4.083348 -2.936413 -0.361389 3.244325 0.000000 0.000000 0.000000 7.827892 0.223294 -2.737920 -89.684662 -23.846106 28.355504 -179.276403 -56.374617 179.959646 1.827710 -7.491011 -0.127911 0.088018 1.176301 -0.000000 0.000000 0.000000 0.000000 0.000000 0.000000 0.000000 -0.970542 -0.110720 -3.381964 63.357583 46.309373 10.036773 -178.805369 76.419936 179.827210 -14.766369 2.589695 -0.430376 0.127859 -0.709487 -0.000000 0.000000 0.000000 0.000000 0.000000 0.000000 0.000000 
3.693936 17.278099 0.898834 -0.783161 -78.254684 12.870981 -10.975365 1.739931 3.064693 -3.668841 6.522649 -18.936604 -2.331919 -1.157941 -1.984342 0.050643 1.161829 6.115356 0.595400 0.000000 -38.125700 9.681457 -1.838015 1.373957 5.143741 -9.758461 -9.150831 1.959139 1.990676 -5.414721 -2.199053 -14.250016 1.053917 -3.482399 0.000000 -36.260800 -0.407875 -1.159157 -5.468716 0.097759 -1.058884 -4.597912 -2.369238 -1.012957 -4.251100 3.573158 -0.752395 4.462198 -2.735484 -0.357069 3.354241 0.000000 0.000000 0.000000 6.757852 -0.345475 -2.868004 -89.963215 -24.428672 29.109807 -179.411405 -56.491640 179.957008 1.906394 -7.377617 -0.132007 0.092892 1.158075 -0.000000 0.000000 0.000000 0.000000 0.000000 0.000000 0.000000 -1.919807 1.133011 -3.281722 59.854090 49.911192 5.965529 -179.093770 84.280188 179.825845 -15.086174 1.487529 -0.288226 0.078469 -0.683175 -0.000000 0.000000 0.000000 0.000000 0.000000 0.000000 0.000000 
